<?xml version="1.0" encoding="UTF-8" standalone="no"?>
<!-- Created with Inkscape (http://www.inkscape.org/) -->

<svg
   xmlns:dc="http://purl.org/dc/elements/1.1/"
   xmlns:cc="http://creativecommons.org/ns#"
   xmlns:rdf="http://www.w3.org/1999/02/22-rdf-syntax-ns#"
   xmlns:svg="http://www.w3.org/2000/svg"
   xmlns="http://www.w3.org/2000/svg"
   xmlns:sodipodi="http://sodipodi.sourceforge.net/DTD/sodipodi-0.dtd"
   xmlns:inkscape="http://www.inkscape.org/namespaces/inkscape"
   width="531.49603"
   height="531.49603"
   id="svg2"
   version="1.1"
   inkscape:version="0.48.4 r9939"
   sodipodi:docname="reminder455.svg">
  <defs
     id="defs4" />
  <sodipodi:namedview
     id="base"
     pagecolor="#ffffff"
     bordercolor="#666666"
     borderopacity="1.0"
     gridtolerance="10000"
     guidetolerance="10"
     objecttolerance="10"
     inkscape:pageopacity="0.0"
     inkscape:pageshadow="2"
     inkscape:zoom="1"
     inkscape:cx="300.83052"
     inkscape:cy="281.72876"
     inkscape:document-units="mm"
     inkscape:current-layer="layer1"
     showgrid="false"
     inkscape:window-width="806"
     inkscape:window-height="665"
     inkscape:window-x="200"
     inkscape:window-y="200"
     inkscape:window-maximized="0"
     units="mm" />
  <metadata
     id="metadata7">
    <rdf:RDF>
      <cc:Work
         rdf:about="">
        <dc:format>image/svg+xml</dc:format>
        <dc:type
           rdf:resource="http://purl.org/dc/dcmitype/StillImage" />
        <dc:title />
      </cc:Work>
    </rdf:RDF>
  </metadata>
  <g
     inkscape:label="Пласт 1"
     inkscape:groupmode="layer"
     id="layer1"
     transform="translate(0,-520.86614)">
    <g
       id="g3073"
       transform="translate(-100,456.57143)">
      <path
         style="fill:#f1f129"
         d="m 255.07143,563.44755 c -2.20662,-1.03198 -8.70761,-6.65802 -14.5,-12.54847 -5.775,-5.87279 -11.71515,-11.32109 -13.20034,-12.10734 -2.0705,-1.09613 -7.20191,-1.43087 -22,-1.43515 -10.89246,-0.003 -21.01722,-0.48243 -23.2425,-1.10025 -5.39195,-1.49698 -15.95434,-12.05939 -17.45133,-17.45132 -1.34731,-4.8528 -1.5098,-60.54749 -0.19007,-65.14911 0.50366,-1.75619 2.48586,-5.24936 4.40487,-7.76261 1.95381,-2.55884 4.03956,-6.87123 4.74007,-9.80034 1.1678,-4.88304 2.48715,-6.49395 19.84513,-24.23079 11.63391,-11.88782 19.90431,-21.23113 22.09417,-24.96041 l 3.5,-5.96042 0.5,-103.53958 c 0.53759,-111.32424 0.20849,-104.82648 5.63997,-111.35609 1.28855,-1.54907 3.07989,-5.37407 3.98075,-8.5 1.43449,-4.97755 2.89502,-6.97203 11.75861,-16.05728 13.39925,-13.73436 14.20912,-14.07666 33.37067,-14.10425 17.33491,-0.025 18.1888,-0.36726 20.27881,-8.12896 0.76064,-2.82478 3.00165,-6.18242 6.80275,-10.19235 9.38412,-9.899683 8.15968,-9.656731 48.66844,-9.656731 40.57325,0 39.42011,-0.230122 48.60665,9.699961 3.97561,4.29739 5.9393,7.38154 6.75015,10.60168 1.90339,7.55905 2.26295,7.65365 29.11571,7.66001 13.24554,0.003 25.16882,0.46139 27.28323,1.04859 2.86813,0.79651 7.3009,4.59117 18.75633,16.05631 8.25032,8.25732 15.70158,16.36889 16.55836,18.02571 1.38408,2.67652 1.5516,15.46448 1.50243,114.68811 -0.0319,64.29221 0.33342,113.37288 0.86091,115.6757 0.76837,3.35436 3.24794,6.25974 15.36198,18 11.21517,10.86913 16.54324,15.22999 23.82499,19.5 11.71142,6.86758 30.92087,24.92362 33.38773,31.38301 1.33693,3.5007 1.53121,8.84409 1.28347,35.29962 -0.27824,29.71105 -0.38916,31.30692 -2.36302,33.99593 -1.1391,1.5518 -3.6141,3.60825 -5.5,4.5699 -3.19922,1.6313 -10.38357,1.74855 -107.24466,1.75 -74.73779,9.9e-4 -104.42754,0.31565 -106,1.123 -1.20134,0.61678 -7.58426,6.419 -14.18426,12.89379 -9.18266,9.00845 -12.93911,12.03075 -16,12.87297 -2.49863,0.68752 -15.07259,1.09449 -33.5,1.08425 -26.70734,-0.0148 -29.87867,-0.19348 -33.5,-1.88708 z"
         id="path3087"
         inkscape:connector-curvature="0" />
      <path
         style="fill:#9f9f9f"
         d="m 255.07143,563.44755 c -2.20662,-1.03198 -8.70761,-6.65802 -14.5,-12.54847 -5.775,-5.87279 -11.71515,-11.32109 -13.20034,-12.10734 -2.0705,-1.09613 -7.20191,-1.43087 -22,-1.43515 -10.89246,-0.003 -21.01722,-0.48243 -23.2425,-1.10025 -5.39195,-1.49698 -15.95434,-12.05939 -17.45133,-17.45132 -1.34731,-4.8528 -1.5098,-60.54749 -0.19007,-65.14911 0.50366,-1.75619 2.48586,-5.24936 4.40487,-7.76261 1.95381,-2.55884 4.03956,-6.87123 4.74007,-9.80034 1.1678,-4.88304 2.48715,-6.49395 19.84513,-24.23079 11.63391,-11.88782 19.90431,-21.23113 22.09417,-24.96041 l 3.5,-5.96042 0.5,-103.53958 c 0.53759,-111.32424 0.20849,-104.82648 5.63997,-111.35609 1.28855,-1.54907 3.07989,-5.37407 3.98075,-8.5 1.43449,-4.97755 2.89502,-6.97203 11.75861,-16.05728 13.39925,-13.73436 14.20912,-14.07666 33.37067,-14.10425 17.33491,-0.025 18.1888,-0.36726 20.27881,-8.12896 0.76064,-2.82478 3.00165,-6.18242 6.80275,-10.19235 9.38412,-9.899683 8.15968,-9.656731 48.66844,-9.656731 40.57325,0 39.42011,-0.230122 48.60665,9.699961 3.97561,4.29739 5.9393,7.38154 6.75015,10.60168 1.90339,7.55905 2.26295,7.65365 29.11571,7.66001 13.24554,0.003 25.16882,0.46139 27.28323,1.04859 2.86813,0.79651 7.3009,4.59117 18.75633,16.05631 8.25032,8.25732 15.70158,16.36889 16.55836,18.02571 1.38408,2.67652 1.5516,15.46448 1.50243,114.68811 -0.0319,64.29221 0.33342,113.37288 0.86091,115.6757 0.76837,3.35436 3.24794,6.25974 15.36198,18 11.21517,10.86913 16.54324,15.22999 23.82499,19.5 11.71142,6.86758 30.92087,24.92362 33.38773,31.38301 1.33693,3.5007 1.53121,8.84409 1.28347,35.29962 -0.27824,29.71105 -0.38916,31.30692 -2.36302,33.99593 -1.1391,1.5518 -3.6141,3.60825 -5.5,4.5699 -3.19922,1.6313 -10.38357,1.74855 -107.24466,1.75 -74.73779,9.9e-4 -104.42754,0.31565 -106,1.123 -1.20134,0.61678 -7.58426,6.419 -14.18426,12.89379 -9.18266,9.00845 -12.93911,12.03075 -16,12.87297 -2.49863,0.68752 -15.07259,1.09449 -33.5,1.08425 -26.70734,-0.0148 -29.87867,-0.19348 -33.5,-1.88708 z m 288.04545,-56.53993 c 2.41904,-2.41903 2.45455,-2.70773 2.45455,-19.95294 0,-19.92538 -0.54271,-22.09505 -5.91471,-23.64609 -2.42682,-0.70069 -58.58466,-0.94006 -173.79965,-0.7408 -161.76296,0.27976 -170.30301,0.38292 -172,2.07769 -1.56436,1.56232 -1.82411,4.1318 -2.0961,20.73501 l -0.31046,18.95167 2.51501,2.51501 2.515,2.515 172.09091,0 172.09091,0 2.45454,-2.45455 z m -52.57805,-73.0253 c 2.42767,-1.50038 0.52133,-4.84375 -7.50759,-13.16695 -4.6971,-4.86926 -9.3096,-10.20319 -10.25,-11.8532 -1.59007,-2.7899 -1.68611,-10.62199 -1.37136,-111.8339 0.18615,-59.85865 0.0177,-111.60865 -0.37428,-115 -0.70358,-6.08696 -0.82343,-6.27956 -9.33845,-15.00704 -4.74415,-4.86253 -9.84087,-9.47503 -11.32606,-10.25 -4.04247,-2.10939 -187.57249,-2.10399 -191.59932,0.006 -3.09835,1.6232 -8.43421,7.05923 -10.08035,10.26958 -0.80694,1.57374 -1.12155,33.57745 -1.12557,114.5 -0.004,71.09718 -0.36918,113.62465 -0.99637,115.88237 -0.71621,2.57817 -4.88639,7.53266 -15.04729,17.87729 -16.3104,16.60532 -16.97839,18.20971 -7.95076,19.09612 7.7433,0.7603 265.70884,0.25794 266.9674,-0.51989 z M 327.31735,422.2765 c -2.06474,-0.48662 -5.9529,-1.999 -8.64035,-3.36083 -2.68745,-1.36184 -7.89005,-3.23059 -11.56134,-4.15279 -6.30458,-1.58366 -7.34285,-2.29347 -18.70672,-12.78872 -14.38305,-13.28365 -20.46848,-20.94724 -21.34776,-26.88394 -0.34442,-2.32543 -0.48301,-13.33293 -0.30798,-24.46111 l 0.31823,-20.23306 3.1571,-3.1548 c 6.01568,-6.01133 17.60626,-4.78186 21.79675,2.31208 1.57326,2.66332 1.93747,5.91588 2.32171,20.73385 l 0.45574,17.57499 5.13435,5.00807 c 3.87762,3.78226 6.40279,5.33042 10.31655,6.32504 2.90133,0.73732 7.25779,2.93444 9.89799,4.99193 l 4.71578,3.67496 40.60201,0.30436 c 22.33111,0.1674 42.45278,0.0366 44.71481,-0.2907 4.8354,-0.6996 16.06784,-9.55931 20.82811,-16.42838 2.87053,-4.14218 2.93389,-4.51035 2.99583,-17.40848 0.069,-14.37177 0.86445,-16.89675 6.22541,-19.76136 3.71232,-1.98367 12.44935,-1.72763 15.79236,0.46279 4.99532,3.27306 5.73473,7.00412 5.37281,27.11106 l -0.32731,18.18349 -4.15805,5.41361 c -2.28692,2.97749 -4.6881,7.40534 -5.33595,9.83968 -1.50354,5.64966 -11.22395,16.05409 -17.27835,18.49423 -2.32521,0.93714 -7.67828,3.47594 -11.89572,5.64179 l -7.66807,3.93791 -41.83193,-0.10045 c -23.00756,-0.0553 -43.52126,-0.4986 -45.58601,-0.98522 z m 98.25408,-118.82051 c -4.43887,-0.93378 -7.98327,-2.80219 -21,-11.07 -21.79852,-13.84571 -38.95698,-23.48303 -47.27394,-26.55215 -10.02018,-3.69763 -19.11068,-14.82799 -19.11068,-23.39901 0,-11.987 13.61418,-25.77971 31.09325,-31.50101 2.86475,-0.9377 6.89986,-2.8526 8.9669,-4.25533 2.06705,-1.40274 6.24816,-3.49235 9.29137,-4.64359 3.0432,-1.15124 7.5581,-3.36432 10.0331,-4.91796 2.475,-1.55364 6.64786,-3.46286 9.27303,-4.24272 2.62516,-0.77986 7.35016,-2.98804 10.5,-4.90707 6.8307,-4.16158 11.46426,-5.15672 17.03113,-3.65771 7.16157,1.92841 9.048,7.59523 5.18489,15.57535 -2.50155,5.16752 -7.49571,8.80043 -21.50158,15.64094 -12.86045,6.28109 -19.48747,11.90704 -19.48747,16.5437 0,3.88702 2.60788,4.96822 13.51769,5.60431 22.15036,1.29145 28.18882,14.11739 9.29552,19.74406 -5.32607,1.58617 -6.81321,2.44526 -6.81321,3.93582 0,2.08658 4.25828,5.65235 10.5,8.79241 5.90259,2.96945 14.33924,10.00458 16.11446,13.43748 3.04198,5.88253 1.16173,16.22252 -3.39322,18.66026 -2.73424,1.46332 -8.37016,2.02234 -12.22124,1.21222 z M 260.09026,291.081 c -2.05944,-2.05944 -3.50972,-4.49346 -3.49687,-5.86883 0.0392,-4.19002 3.63928,-10.45688 8.01026,-13.94376 7.09333,-5.65858 10.15295,-8.85074 9.72211,-10.14325 -0.22502,-0.67507 -3.29637,-2.22162 -6.82521,-3.43676 -6.98671,-2.40587 -9.35688,-4.59422 -10.85585,-10.02305 -1.2947,-4.68901 -0.38274,-8.72098 2.66097,-11.76469 3.14006,-3.14007 7.26959,-3.9148 17.5858,-3.29929 9.12799,0.54462 12.67996,-0.30098 12.67996,-3.01867 0,-2.67185 -4.80169,-9.75716 -11.89487,-17.55192 -6.77096,-7.44067 -8.10513,-9.96401 -8.10513,-15.32942 0,-7.48919 7.00372,-13.24938 14.6091,-12.01519 4.72147,0.76618 7.68196,3.60055 10.42789,9.98363 1.20925,2.81097 4.7641,7.8292 7.89966,11.15161 8.28402,8.77767 16.83948,21.65276 19.49941,29.34459 1.27358,3.68289 3.54361,9.58107 5.04451,13.10706 6.04883,14.21025 2.3434,18.29302 -32.43201,35.73471 -16.42069,8.23584 -20.35198,9.82106 -25.23117,10.17399 -5.51563,0.39896 -5.94052,0.25729 -9.29856,-3.10076 z"
         id="path3085"
         inkscape:connector-curvature="0" />
      <path
         style="fill:#a0a021"
         d="m 257.07143,558.92669 c -1.65,-0.74644 -7.5,-5.93572 -13,-11.53171 -15.42932,-15.69861 -12.25492,-14.44834 -38.16774,-15.03281 l -22.16773,-0.5 -4.30434,-3.02793 c -2.36738,-1.66536 -5.6669,-4.96559 -7.33226,-7.33384 l -3.02793,-4.30593 -0.30458,-28.66616 c -0.16752,-15.76638 -0.0441,-30.07825 0.27431,-31.80417 0.31839,-1.72592 2.07871,-5.1023 3.91183,-7.50306 1.83312,-2.40077 4.10841,-7.03252 5.05619,-10.29277 1.62748,-5.59832 2.76078,-6.9875 20.39275,-24.99694 11.70172,-11.95225 19.97576,-21.29371 22.1695,-25.02956 l 3.5,-5.96035 0.5,-104.14101 0.5,-104.14102 3.71291,-4.76513 c 2.0421,-2.62082 4.44751,-7.29208 5.34536,-10.38057 1.3985,-4.81067 2.94445,-6.96135 10.78709,-15.00668 5.03505,-5.16518 10.60269,-10.0108 12.37252,-10.76805 2.26239,-0.968 7.75566,-1.37793 18.5,-1.38056 18.78024,-0.005 20.36312,-0.65338 23.1479,-9.4877 2.0752,-6.58329 9.04695,-14.91506 14.3521,-17.15183 2.49424,-1.05163 10.78087,-1.35674 36.84887,-1.35674 38.09965,0 37.20549,-0.15814 44.75781,7.9159 3.04831,3.25889 4.93257,6.45677 6.03118,10.23586 2.77371,9.54121 1.89103,9.27411 32.54454,9.84824 24.02292,0.44995 26.99097,0.6904 29.64757,2.40184 3.76994,2.42867 26.46077,25.14779 29.01751,29.05369 1.87695,2.86739 1.94955,6.38588 2.43464,118 0.36744,84.54316 0.80709,115.57813 1.65827,117.05732 1.81739,3.1583 27.23143,27.61674 33.34173,32.08806 3.025,2.21359 7.975,5.43888 11,7.16731 7.08402,4.04769 24.87223,20.68174 26.63925,24.91081 1.83117,4.38261 1.97551,59.87762 0.16606,63.84892 -2.60272,5.71236 2.23611,5.47205 -110.19055,5.47205 -70.60022,0 -104.37912,0.33757 -106.29966,1.06227 -1.54831,0.58425 -8.22831,6.40764 -14.84446,12.94087 -6.61614,6.53323 -13.28294,12.3552 -14.8151,12.93773 -4.39459,1.67081 -60.35603,1.34254 -64.15554,-0.37635 z m 51.77778,-18.09248 c 0.97778,-0.38904 2.22289,-1.53903 2.76691,-2.55554 2.51328,-4.6961 -8.82186,-6.32185 -31.29856,-4.489 -7.04753,0.57469 -11.15152,1.35604 -11.90762,2.2671 -2.0942,2.52335 0.71773,3.58605 11.7715,4.44875 5.88605,0.45938 10.96922,1.11527 11.29595,1.45752 0.73228,0.76709 14.92457,-0.15513 17.37182,-1.12882 z m 234.26767,-33.92659 c 2.41904,-2.41903 2.45455,-2.70773 2.45455,-19.95294 0,-19.92538 -0.54271,-22.09505 -5.91471,-23.64609 -2.42682,-0.70069 -58.58466,-0.94006 -173.79965,-0.7408 -161.76296,0.27976 -170.30301,0.38292 -172,2.07769 -1.56436,1.56232 -1.82411,4.1318 -2.0961,20.73501 l -0.31046,18.95167 2.51501,2.51501 2.515,2.515 172.09091,0 172.09091,0 2.45454,-2.45455 z m -52.57805,-73.0253 c 2.42767,-1.50038 0.52133,-4.84375 -7.50759,-13.16695 -4.6971,-4.86926 -9.3096,-10.20319 -10.25,-11.8532 -1.59007,-2.7899 -1.68611,-10.62199 -1.37136,-111.8339 0.18615,-59.85865 0.0177,-111.60865 -0.37428,-115 -0.70358,-6.08696 -0.82343,-6.27956 -9.33845,-15.00704 -4.74415,-4.86253 -9.84087,-9.47503 -11.32606,-10.25 -4.04247,-2.10939 -187.57249,-2.10399 -191.59932,0.006 -3.09835,1.6232 -8.43421,7.05923 -10.08035,10.26958 -0.80694,1.57374 -1.12155,33.57745 -1.12557,114.5 -0.004,71.09718 -0.36918,113.62465 -0.99637,115.88237 -0.71621,2.57817 -4.88639,7.53266 -15.04729,17.87729 -16.3104,16.60532 -16.97839,18.20971 -7.95076,19.09612 7.7433,0.7603 265.70884,0.25794 266.9674,-0.51989 z M 327.31735,422.2765 c -2.06474,-0.48662 -5.9529,-1.999 -8.64035,-3.36083 -2.68745,-1.36184 -7.89005,-3.23059 -11.56134,-4.15279 -6.30458,-1.58366 -7.34285,-2.29347 -18.70672,-12.78872 -14.38305,-13.28365 -20.46848,-20.94724 -21.34776,-26.88394 -0.34442,-2.32543 -0.48301,-13.33293 -0.30798,-24.46111 l 0.31823,-20.23306 3.1571,-3.1548 c 6.01568,-6.01133 17.60626,-4.78186 21.79675,2.31208 1.57326,2.66332 1.93747,5.91588 2.32171,20.73385 l 0.45574,17.57499 5.13435,5.00807 c 3.87762,3.78226 6.40279,5.33042 10.31655,6.32504 2.90133,0.73732 7.25779,2.93444 9.89799,4.99193 l 4.71578,3.67496 40.60201,0.30436 c 22.33111,0.1674 42.45278,0.0366 44.71481,-0.2907 4.8354,-0.6996 16.06784,-9.55931 20.82811,-16.42838 2.87053,-4.14218 2.93389,-4.51035 2.99583,-17.40848 0.069,-14.37177 0.86445,-16.89675 6.22541,-19.76136 3.71232,-1.98367 12.44935,-1.72763 15.79236,0.46279 4.99532,3.27306 5.73473,7.00412 5.37281,27.11106 l -0.32731,18.18349 -4.15805,5.41361 c -2.28692,2.97749 -4.6881,7.40534 -5.33595,9.83968 -1.50354,5.64966 -11.22395,16.05409 -17.27835,18.49423 -2.32521,0.93714 -7.67828,3.47594 -11.89572,5.64179 l -7.66807,3.93791 -41.83193,-0.10045 c -23.00756,-0.0553 -43.52126,-0.4986 -45.58601,-0.98522 z m 98.25408,-118.82051 c -4.43887,-0.93378 -7.98327,-2.80219 -21,-11.07 -21.79852,-13.84571 -38.95698,-23.48303 -47.27394,-26.55215 -10.02018,-3.69763 -19.11068,-14.82799 -19.11068,-23.39901 0,-11.987 13.61418,-25.77971 31.09325,-31.50101 2.86475,-0.9377 6.89986,-2.8526 8.9669,-4.25533 2.06705,-1.40274 6.24816,-3.49235 9.29137,-4.64359 3.0432,-1.15124 7.5581,-3.36432 10.0331,-4.91796 2.475,-1.55364 6.64786,-3.46286 9.27303,-4.24272 2.62516,-0.77986 7.35016,-2.98804 10.5,-4.90707 6.8307,-4.16158 11.46426,-5.15672 17.03113,-3.65771 7.16157,1.92841 9.048,7.59523 5.18489,15.57535 -2.50155,5.16752 -7.49571,8.80043 -21.50158,15.64094 -12.86045,6.28109 -19.48747,11.90704 -19.48747,16.5437 0,3.88702 2.60788,4.96822 13.51769,5.60431 22.15036,1.29145 28.18882,14.11739 9.29552,19.74406 -5.32607,1.58617 -6.81321,2.44526 -6.81321,3.93582 0,2.08658 4.25828,5.65235 10.5,8.79241 5.90259,2.96945 14.33924,10.00458 16.11446,13.43748 3.04198,5.88253 1.16173,16.22252 -3.39322,18.66026 -2.73424,1.46332 -8.37016,2.02234 -12.22124,1.21222 z M 260.09026,291.081 c -2.05944,-2.05944 -3.50972,-4.49346 -3.49687,-5.86883 0.0392,-4.19002 3.63928,-10.45688 8.01026,-13.94376 7.09333,-5.65858 10.15295,-8.85074 9.72211,-10.14325 -0.22502,-0.67507 -3.29637,-2.22162 -6.82521,-3.43676 -6.98671,-2.40587 -9.35688,-4.59422 -10.85585,-10.02305 -1.2947,-4.68901 -0.38274,-8.72098 2.66097,-11.76469 3.14006,-3.14007 7.26959,-3.9148 17.5858,-3.29929 9.12799,0.54462 12.67996,-0.30098 12.67996,-3.01867 0,-2.67185 -4.80169,-9.75716 -11.89487,-17.55192 -6.77096,-7.44067 -8.10513,-9.96401 -8.10513,-15.32942 0,-7.48919 7.00372,-13.24938 14.6091,-12.01519 4.72147,0.76618 7.68196,3.60055 10.42789,9.98363 1.20925,2.81097 4.7641,7.8292 7.89966,11.15161 8.28402,8.77767 16.83948,21.65276 19.49941,29.34459 1.27358,3.68289 3.54361,9.58107 5.04451,13.10706 6.04883,14.21025 2.3434,18.29302 -32.43201,35.73471 -16.42069,8.23584 -20.35198,9.82106 -25.23117,10.17399 -5.51563,0.39896 -5.94052,0.25729 -9.29856,-3.10076 z M 376.34892,130.80547 c 2.63061,-1.84255 2.87429,-4.65748 0.56882,-6.57085 -1.30479,-1.08287 -6.94878,-1.37245 -26.75,-1.37245 -26.88784,0 -29.59631,0.44249 -29.59631,4.83519 0,4.50697 0.94667,4.66481 27.97749,4.66481 21.53117,0 25.9291,-0.24626 27.8,-1.5567 z"
         id="path3083"
         inkscape:connector-curvature="0" />
      <path
         style="fill:#5d5d5c"
         d="m 257.07143,558.92669 c -1.65,-0.74644 -7.5,-5.93572 -13,-11.53171 -15.42932,-15.69861 -12.25492,-14.44834 -38.16774,-15.03281 l -22.16773,-0.5 -4.30434,-3.02793 c -2.36738,-1.66536 -5.6669,-4.96559 -7.33226,-7.33384 l -3.02793,-4.30593 -0.30458,-28.66616 c -0.16752,-15.76638 -0.0441,-30.07825 0.27431,-31.80417 0.31839,-1.72592 2.07871,-5.1023 3.91183,-7.50306 1.83312,-2.40077 4.10841,-7.03252 5.05619,-10.29277 1.62748,-5.59832 2.76078,-6.9875 20.39275,-24.99694 11.70172,-11.95225 19.97576,-21.29371 22.1695,-25.02956 l 3.5,-5.96035 0.5,-104.14101 0.5,-104.14102 3.71291,-4.76513 c 2.0421,-2.62082 4.44751,-7.29208 5.34536,-10.38057 1.3985,-4.81067 2.94445,-6.96135 10.78709,-15.00668 5.03505,-5.16518 10.60269,-10.0108 12.37252,-10.76805 2.26239,-0.968 7.75566,-1.37793 18.5,-1.38056 18.78024,-0.005 20.36312,-0.65338 23.1479,-9.4877 2.0752,-6.58329 9.04695,-14.91506 14.3521,-17.15183 2.49424,-1.05163 10.78087,-1.35674 36.84887,-1.35674 38.09965,0 37.20549,-0.15814 44.75781,7.9159 3.04831,3.25889 4.93257,6.45677 6.03118,10.23586 2.77371,9.54121 1.89103,9.27411 32.54454,9.84824 24.02292,0.44995 26.99097,0.6904 29.64757,2.40184 3.76994,2.42867 26.46077,25.14779 29.01751,29.05369 1.87695,2.86739 1.94955,6.38588 2.43464,118 0.36744,84.54316 0.80709,115.57813 1.65827,117.05732 1.81739,3.1583 27.23143,27.61674 33.34173,32.08806 3.025,2.21359 7.975,5.43888 11,7.16731 7.08402,4.04769 24.87223,20.68174 26.63925,24.91081 1.83117,4.38261 1.97551,59.87762 0.16606,63.84892 -2.60272,5.71236 2.23611,5.47205 -110.19055,5.47205 -70.60022,0 -104.37912,0.33757 -106.29966,1.06227 -1.54831,0.58425 -8.22831,6.40764 -14.84446,12.94087 -6.61614,6.53323 -13.28294,12.3552 -14.8151,12.93773 -4.39459,1.67081 -60.35603,1.34254 -64.15554,-0.37635 z m 51.77778,-18.09248 c 0.97778,-0.38904 2.22289,-1.53903 2.76691,-2.55554 2.51328,-4.6961 -8.82186,-6.32185 -31.29856,-4.489 -7.04753,0.57469 -11.15152,1.35604 -11.90762,2.2671 -2.0942,2.52335 0.71773,3.58605 11.7715,4.44875 5.88605,0.45938 10.96922,1.11527 11.29595,1.45752 0.73228,0.76709 14.92457,-0.15513 17.37182,-1.12882 z m 236.0649,-28.58231 c 4.17863,-1.90392 4.65732,-4.66678 4.65732,-26.88102 0,-20.64854 -0.0287,-20.93057 -2.41336,-23.70295 l -2.41336,-2.80576 -175.65527,-0.2583 -175.65526,-0.25829 -2.93138,2.93137 -2.93137,2.93137 0,21.02988 c 0,22.00833 0.49768,25.08224 4.36408,26.95438 3.12227,1.51184 349.66287,1.57007 352.9786,0.0593 z m -47.56519,-74.44643 c 4.41722,-3.09393 3.03387,-5.92717 -8.71392,-17.84685 -6.01503,-6.10305 -11.41503,-12.36324 -12,-13.91155 -0.72844,-1.92805 -1.06357,-38.25372 -1.06357,-115.28212 0,-96.49312 -0.20799,-112.96481 -1.46439,-115.9718 -1.65894,-3.97038 -10.65007,-13.81589 -17.87541,-19.57399 l -4.8398,-3.85699 -96.83246,0 -96.83246,0 -4.30231,3.28149 c -2.36627,1.80481 -5.66375,5.21867 -7.32774,7.58636 l -3.02543,4.30489 -0.20907,113.66363 c -0.11499,62.51499 -0.48732,114.78075 -0.8274,116.14612 -0.34009,1.36538 -7.81684,9.76723 -16.615,18.67079 -13.95448,14.12165 -15.95529,16.54653 -15.6726,18.99434 0.20685,1.79107 1.22835,3.26123 2.82407,4.06447 1.97296,0.99313 32.02007,1.26153 142.52749,1.27317 125.13292,0.0132 140.2639,-0.15084 142.25,-1.54196 z M 333.07143,417.3149 c -3.3,-0.43652 -9.44996,-2.17946 -13.66659,-3.8732 -4.21662,-1.69374 -8.04162,-3.08204 -8.5,-3.08511 -4.17033,-0.0279 -9.21189,-3.00145 -16.9802,-10.01502 -4.86094,-4.38867 -9.15328,-7.9794 -9.53853,-7.9794 -0.38524,0 -3.17037,-3.15667 -6.18916,-7.01482 -7.14742,-9.1347 -7.89238,-12.5951 -7.46116,-34.65742 0.32396,-16.57491 0.41997,-17.26192 2.75995,-19.75 1.85097,-1.96812 3.38821,-2.57023 6.5,-2.54596 8.21973,0.0641 9.57569,3.24574 9.57569,22.46821 0,7.90339 0.47516,15.6366 1.0559,17.1849 1.91831,5.11432 10.91472,13.24289 16.4441,14.85781 2.75,0.80318 7.64824,3.25963 10.88497,5.4588 l 5.88497,3.99849 44.90487,0 c 51.81776,0 47.62341,0.74747 59.16048,-10.54298 10.38438,-10.1624 10.65657,-10.80478 10.66097,-25.15997 0.002,-6.80484 0.49488,-13.28088 1.11401,-14.63973 2.25786,-4.95546 10.38447,-6.25349 14.34646,-2.29149 3.03373,3.03372 3.92495,9.84296 3.36047,25.67525 -0.41214,11.55955 -0.52731,12.07715 -3.60449,16.2 -3.31021,4.43505 -5.17603,7.91871 -7.30565,13.64036 -1.84546,4.95819 -10.48261,12.79602 -16.65981,15.11804 -2.88902,1.08598 -7.93869,3.33036 -11.22149,4.98752 l -5.96873,3.01299 -36.77851,-0.1268 c -20.22819,-0.0697 -39.47852,-0.48396 -42.77852,-0.92047 z m 92,-119.1409 c -1.65,-0.60747 -7.275,-3.81357 -12.5,-7.12467 -15.07513,-9.55315 -39.48536,-23.41403 -50.63147,-28.7501 -10.70213,-5.12352 -13.79503,-7.9269 -16.87302,-15.29357 -1.96426,-4.70113 -1.2193,-9.11063 2.54088,-15.03983 3.43393,-5.41474 15.04341,-13.82809 22.29404,-16.15641 2.84326,-0.91303 8.09457,-3.3651 11.66957,-5.44906 3.575,-2.08395 8.3,-4.35112 10.5,-5.03815 2.2,-0.68704 5.84809,-2.51141 8.10686,-4.05416 2.25878,-1.54275 6.23913,-3.34191 8.84523,-3.99813 2.6061,-0.65623 7.02387,-2.76529 9.81727,-4.68681 3.67878,-2.53055 6.15726,-3.49367 8.99063,-3.49367 5.15059,0 8.29241,2.93566 7.31398,6.83404 -1.0792,4.29986 -6.05137,8.1613 -18.62459,14.46406 -12.01073,6.0208 -22.2578,14.02544 -24.07579,18.80712 -1.14613,3.01455 0.38498,8.18655 3.16956,10.70656 1.44649,1.30906 4.55471,1.98127 11.73153,2.5372 10.11285,0.78334 14.71372,2.14815 15.67355,4.64945 1.27679,3.32725 -3.55063,5.71546 -13.73636,6.79561 -4.35692,0.46204 -7.58031,1.39405 -9,2.60226 l -2.21187,1.88241 2.5,2.07815 c 1.375,1.14299 4.975,3.57056 8,5.39459 15.88154,9.57636 19.66943,12.16014 24.12941,16.45898 4.24467,4.09131 4.87059,5.21237 4.87059,8.72347 0,6.42111 -5.67061,9.665 -12.5,7.15066 z M 264.0294,285.93837 c -1.44196,-2.20071 -1.44458,-2.70141 -0.0285,-5.43985 0.85781,-1.65882 3.90448,-4.95561 6.77038,-7.32619 13.18686,-10.90779 16.26737,-15.42549 12.05013,-17.67202 -0.9625,-0.51273 -4.88498,-1.26642 -8.71662,-1.67488 -5.72957,-0.61078 -7.46085,-1.23689 -9.75,-3.52603 -3.25665,-3.25666 -3.55712,-6.76442 -0.86313,-10.07644 1.86159,-2.28866 2.3074,-2.35148 14.59194,-2.05602 15.49182,0.37261 17.48781,-0.44484 17.48781,-7.16204 0,-4.88675 -4.44404,-12.10327 -13.16744,-21.38214 -6.36708,-6.7725 -8.38142,-11.34621 -6.61514,-15.02012 0.70542,-1.46729 2.47818,-3.33797 3.93948,-4.15707 4.17594,-2.34073 7.42922,-0.27183 10.4902,6.67116 1.55831,3.53462 4.9481,8.25212 8.80928,12.25975 8.57778,8.9031 15.85581,20.36257 18.53539,29.18451 1.21567,4.00234 3.06485,8.952 4.10927,10.99925 5.1165,10.02916 2.39468,13.02394 -25.60104,28.16852 -1.65,0.8926 -7.45323,3.65026 -12.89607,6.12816 -11.63809,5.29831 -16.6791,5.84636 -19.14596,2.08145 z m 112.31952,-155.1329 c 2.63061,-1.84255 2.87429,-4.65748 0.56882,-6.57085 -1.30479,-1.08287 -6.94878,-1.37245 -26.75,-1.37245 -26.88784,0 -29.59631,0.44249 -29.59631,4.83519 0,4.50697 0.94667,4.66481 27.97749,4.66481 21.53117,0 25.9291,-0.24626 27.8,-1.5567 z"
         id="path3081"
         inkscape:connector-curvature="0" />
      <path
         style="fill:#5e5e19"
         d="m 256.95629,554.19084 c -1.58667,-1.19422 -7.83486,-6.99533 -13.88486,-12.89132 -8.26901,-8.05853 -11.99309,-10.99387 -15,-11.82311 -2.25565,-0.62204 -12.19831,-1.10551 -22.79966,-1.10866 -14.25895,-0.004 -19.45188,-0.34727 -21.5,-1.42026 -3.09835,-1.6232 -8.43421,-7.05921 -10.08035,-10.26958 -1.5757,-3.073 -1.54994,-58.62957 0.0286,-61.63148 0.63172,-1.20134 2.20285,-3.45169 3.4914,-5.00076 1.28856,-1.54908 3.08144,-5.37408 3.98419,-8.5 1.4134,-4.89418 2.90755,-6.98466 10.7586,-15.05252 5.01448,-5.15296 11.76462,-11.90296 15.00031,-15 7.87279,-7.53545 16.27037,-18.14069 18.94014,-23.91934 l 2.1768,-4.71164 0.5,-103.0447 c 0.55136,-113.62974 -0.10432,-102.2364 6.39663,-111.15053 1.28163,-1.75738 2.63628,-5.10911 3.01033,-7.4483 0.5873,-3.67274 2.03311,-5.62464 10.59581,-14.30477 l 9.91571,-10.0517 17.9694,-0.5 c 21.46389,-0.59723 22.26492,-0.9402 25.91322,-11.09502 2.44218,-6.79765 8.30284,-13.87696 13.15043,-15.8849 1.79597,-0.74391 13.50926,-1.0049 36.31286,-0.8091 l 33.66172,0.28902 5.0794,5 c 3.74731,3.68874 5.47485,6.35826 6.58731,10.17918 1.96246,6.74036 4.63056,10.01098 9.20267,11.2808 2.05857,0.57174 14.27883,1.03135 27.50417,1.03445 18.71157,0.004 24.37696,0.31149 26.5,1.4365 4.04313,2.14249 27.94185,26.64261 29.15061,29.88417 0.71023,1.90466 1.04973,39.45637 1.04973,116.11045 l 0,113.29536 2.49594,3.67798 c 3.1226,4.60139 23.82519,25.05234 32.50406,32.10896 3.575,2.90677 9.2,6.86415 12.5,8.7942 3.3,1.93004 10.61914,7.93915 16.26475,13.35356 l 10.26475,9.84439 -0.0147,29.57569 -0.0148,29.57569 -2.31445,2.17431 -2.31445,2.17431 -102.93555,0.006 c -68.10471,0.004 -104.20128,0.3571 -106.67616,1.04442 -2.74566,0.76252 -7.00142,4.24586 -16,13.096 -6.74266,6.63144 -13.30118,12.46145 -14.57449,12.95558 -1.2733,0.49372 -15.27512,0.898 -31.11514,0.898 -28.00512,0 -28.87967,-0.0599 -31.6849,-2.17133 z m 57.03091,-10.18152 c 3.87954,-2.54197 5.15043,-5.866 3.63843,-9.5163 -2.11341,-5.10222 -5.12602,-5.65963 -29.0542,-5.3759 -18.86467,0.22371 -21.79695,0.47501 -23.92267,2.0502 -3.50461,2.59695 -4.45966,4.53539 -3.70871,7.52742 1.1417,4.54891 4.92269,6.1001 16.5848,6.8041 18.50897,1.11735 33.41298,0.5085 36.46235,-1.48952 z M 544.91411,512.2519 c 4.17863,-1.90392 4.65732,-4.66678 4.65732,-26.88102 0,-20.64854 -0.0287,-20.93057 -2.41336,-23.70295 l -2.41336,-2.80576 -175.65527,-0.2583 -175.65526,-0.25829 -2.93138,2.93137 -2.93137,2.93137 0,21.02988 c 0,22.00833 0.49768,25.08224 4.36408,26.95438 3.12227,1.51184 349.66287,1.57007 352.9786,0.0593 z m -47.56519,-74.44643 c 4.41722,-3.09393 3.03387,-5.92717 -8.71392,-17.84685 -6.01503,-6.10305 -11.41503,-12.36324 -12,-13.91155 -0.72844,-1.92805 -1.06357,-38.25372 -1.06357,-115.28212 0,-96.49312 -0.20799,-112.96481 -1.46439,-115.9718 -1.65894,-3.97038 -10.65007,-13.81589 -17.87541,-19.57399 l -4.8398,-3.85699 -96.83246,0 -96.83246,0 -4.30231,3.28149 c -2.36627,1.80481 -5.66375,5.21867 -7.32774,7.58636 l -3.02543,4.30489 -0.20907,113.66363 c -0.11499,62.51499 -0.48732,114.78075 -0.8274,116.14612 -0.34009,1.36538 -7.81684,9.76723 -16.615,18.67079 -13.95448,14.12165 -15.95529,16.54653 -15.6726,18.99434 0.20685,1.79107 1.22835,3.26123 2.82407,4.06447 1.97296,0.99313 32.02007,1.26153 142.52749,1.27317 125.13292,0.0132 140.2639,-0.15084 142.25,-1.54196 z M 333.07143,417.3149 c -3.3,-0.43652 -9.44996,-2.17946 -13.66659,-3.8732 -4.21662,-1.69374 -8.04162,-3.08204 -8.5,-3.08511 -4.17033,-0.0279 -9.21189,-3.00145 -16.9802,-10.01502 -4.86094,-4.38867 -9.15328,-7.9794 -9.53853,-7.9794 -0.38524,0 -3.17037,-3.15667 -6.18916,-7.01482 -7.14742,-9.1347 -7.89238,-12.5951 -7.46116,-34.65742 0.32396,-16.57491 0.41997,-17.26192 2.75995,-19.75 1.85097,-1.96812 3.38821,-2.57023 6.5,-2.54596 8.21973,0.0641 9.57569,3.24574 9.57569,22.46821 0,7.90339 0.47516,15.6366 1.0559,17.1849 1.91831,5.11432 10.91472,13.24289 16.4441,14.85781 2.75,0.80318 7.64824,3.25963 10.88497,5.4588 l 5.88497,3.99849 44.90487,0 c 51.81776,0 47.62341,0.74747 59.16048,-10.54298 10.38438,-10.1624 10.65657,-10.80478 10.66097,-25.15997 0.002,-6.80484 0.49488,-13.28088 1.11401,-14.63973 2.25786,-4.95546 10.38447,-6.25349 14.34646,-2.29149 3.03373,3.03372 3.92495,9.84296 3.36047,25.67525 -0.41214,11.55955 -0.52731,12.07715 -3.60449,16.2 -3.31021,4.43505 -5.17603,7.91871 -7.30565,13.64036 -1.84546,4.95819 -10.48261,12.79602 -16.65981,15.11804 -2.88902,1.08598 -7.93869,3.33036 -11.22149,4.98752 l -5.96873,3.01299 -36.77851,-0.1268 c -20.22819,-0.0697 -39.47852,-0.48396 -42.77852,-0.92047 z m 92,-119.15293 c -3.73729,-1.39093 -17.56945,-10.09793 -27.5,-17.31056 -4.125,-2.99602 -8.85,-6.19342 -10.5,-7.10533 -1.65,-0.91192 -5.19628,-3.39635 -7.88063,-5.52097 -3.82141,-3.02459 -5.74749,-3.86294 -8.87495,-3.86294 -4.53428,0 -15.74442,-4.6353 -15.74442,-6.51018 0,-0.68038 -1.75675,-3.15891 -3.90388,-5.50784 -6.27588,-6.8657 -6.1791,-12.63025 0.37787,-22.50874 4.22845,-6.37043 11.21364,-11.44974 19.80315,-14.39994 3.17742,-1.09133 8.35242,-3.53689 11.5,-5.43457 3.14757,-1.89768 7.52286,-4.00777 9.72286,-4.68908 2.2,-0.68132 5.84809,-2.50101 8.10686,-4.04376 2.25878,-1.54275 6.23913,-3.34191 8.84523,-3.99813 2.6061,-0.65623 7.00173,-2.75006 9.76807,-4.65296 4.82495,-3.31899 10.69169,-4.67627 12.48056,-2.8874 1.20012,1.20012 0.70312,8.01489 -0.81828,11.22012 -1.05693,2.22672 -4.14378,4.32982 -13.10993,8.9319 -6.45012,3.31068 -13.6561,7.63155 -16.01331,9.60192 -2.3572,1.97039 -5.74233,4.33569 -7.52251,5.25626 -3.75546,1.94203 -3.99875,3.67879 -1.37332,9.80367 2.74451,6.40267 4.00433,7.05025 15.43593,7.93451 8.69138,0.67228 10.45963,1.10839 11.9507,2.94741 2.71429,3.34769 2.20664,5.64168 -1.5,6.7783 -4.6956,1.43989 -12.46368,2.39945 -18.43481,2.27717 -5.40781,-0.11074 -8.70263,1.70813 -7.72224,4.26299 0.27939,0.72807 2.73068,2.36481 5.44731,3.63721 2.71663,1.27241 7.44279,4.43023 10.50259,7.01739 4.23286,3.57901 7.40394,5.24727 13.26021,6.97598 6.12463,1.80793 8.56512,3.1354 11.94694,6.49834 3.57897,3.559 4.25,4.85414 4.25,8.20287 0,6.37258 -5.71406,9.61193 -12.5,7.08637 z m -158.48803,-15.0498 -1.15376,-5.25 5.22915,-4.5 c 2.87604,-2.47499 7.74544,-6.8411 10.8209,-9.70246 5.12216,-4.76557 5.45795,-5.33724 3.99858,-6.80744 -0.94546,-0.95249 -5.0886,-2.12179 -10.19109,-2.87621 -8.66659,-1.28138 -10.95931,-2.33195 -12.86659,-5.89573 -0.87419,-1.63345 -0.34968,-2.65139 3.26281,-6.33225 5.11033,-5.20704 7.90382,-5.54539 15.38803,-1.86377 6.40708,3.15175 9.92036,3.14842 13.08119,-0.0124 2.23577,-2.23577 2.42479,-3.02783 1.8495,-7.75 -0.75574,-6.20337 -4.5939,-12.58958 -13.4194,-22.32817 -5.7804,-6.37846 -6.01129,-6.83973 -6.01129,-12.00935 0,-4.67414 0.33655,-5.59663 2.5775,-7.06495 4.23553,-2.77523 7.39064,-0.95135 10.9225,6.31401 1.68707,3.47045 5.68564,8.96085 9.13658,12.54533 8.44634,8.77321 15.69177,20.21347 18.35519,28.98221 1.21567,4.00234 3.06485,8.952 4.10927,10.99924 3.76931,7.38845 1.93029,12.10288 -6.83202,17.51427 -9.13618,5.64227 -20.80623,11.93428 -26.26902,14.16318 -3.025,1.23424 -7.5859,3.34217 -10.13533,4.68428 -2.54943,1.34211 -5.99964,2.44022 -7.66713,2.44022 -2.84425,0 -3.10319,-0.32479 -4.18557,-5.25 z M 379.31919,134.79858 c 6.30049,-2.58494 6.76411,-9.48958 0.92891,-13.83426 -2.70678,-2.01537 -3.94518,-2.10215 -30,-2.10215 -29.7086,0 -32.5853,0.451 -34.64852,5.43205 -1.52337,3.67772 -0.42188,7.55887 2.95061,10.39663 l 2.76047,2.32278 27.38038,-0.44129 c 19.63299,-0.31642 28.29936,-0.81831 30.62815,-1.77376 z"
         id="path3079"
         inkscape:connector-curvature="0" />
      <path
         style="fill:#2c2c0c"
         d="m 256.95629,554.19084 c -1.58667,-1.19422 -7.83486,-6.99533 -13.88486,-12.89132 -8.26901,-8.05853 -11.99309,-10.99387 -15,-11.82311 -2.25565,-0.62204 -12.19831,-1.10551 -22.79966,-1.10866 -14.25895,-0.004 -19.45188,-0.34727 -21.5,-1.42026 -3.09835,-1.6232 -8.43421,-7.05921 -10.08035,-10.26958 -1.5757,-3.073 -1.54994,-58.62957 0.0286,-61.63148 0.63172,-1.20134 2.20285,-3.45169 3.4914,-5.00076 1.28856,-1.54908 3.08144,-5.37408 3.98419,-8.5 1.4134,-4.89418 2.90755,-6.98466 10.7586,-15.05252 5.01448,-5.15296 11.76462,-11.90296 15.00031,-15 7.87279,-7.53545 16.27037,-18.14069 18.94014,-23.91934 l 2.1768,-4.71164 0.5,-103.0447 c 0.46263,-95.34237 0.62882,-103.24124 2.22336,-105.67415 2.02375,-3.0878 5.49235,-4.46537 7.1273,-2.83064 0.84838,0.84826 1.22237,29.87442 1.42824,110.84933 0.15339,60.33509 0.006,110.82516 -0.32701,112.20016 -0.33497,1.38205 -7.67383,9.65487 -16.41145,18.5 -19.87614,20.12069 -20.4916,21.20269 -15.11736,26.57692 l 2.92307,2.92308 143.52987,0 c 103.0747,0 144.21682,-0.31299 145.96706,-1.11046 3.31673,-1.51119 5.07544,-5.08587 4.20618,-8.54929 -0.42115,-1.67802 -5.32377,-7.48896 -12.14558,-14.39585 -7.72819,-7.82456 -11.75799,-12.69301 -12.42152,-15.00659 -0.61672,-2.15039 -0.98216,-45.21116 -0.98216,-115.73087 0,-95.44247 -0.21466,-112.71174 -1.42956,-115.0066 -2.618,-4.94521 -21.84073,-23.13067 -25.58514,-24.20455 -4.80242,-1.37732 -190.1896,-1.34451 -195.15466,0.0345 -2.01815,0.56054 -5.90927,3.03303 -8.64693,5.49442 -2.73766,2.4614 -5.47395,4.47526 -6.08064,4.47526 -2.54696,0 -0.58442,-3.03185 7.76769,-12 l 8.84743,-9.5 18.06954,-0.5 c 21.57715,-0.59705 22.36206,-0.93183 26.01337,-11.09502 2.44218,-6.79765 8.30284,-13.87696 13.15043,-15.8849 1.79597,-0.74391 13.50926,-1.0049 36.31286,-0.8091 l 33.66172,0.28902 5.0794,5 c 3.74731,3.68874 5.47485,6.35826 6.58731,10.17918 1.96246,6.74036 4.63056,10.01098 9.20267,11.2808 2.05857,0.57174 14.27883,1.03135 27.50417,1.03445 18.71157,0.004 24.37696,0.31149 26.5,1.4365 4.04313,2.14249 27.94185,26.64261 29.15061,29.88417 0.71023,1.90466 1.04973,39.45637 1.04973,116.11045 l 0,113.29536 2.49594,3.67798 c 3.1226,4.60139 23.82519,25.05234 32.50406,32.10896 3.575,2.90677 9.2,6.89237 12.5,8.85692 3.3,1.96455 10.61273,7.97366 16.2505,13.35357 l 10.2505,9.78166 -5e-4,29.57569 -5e-4,29.57569 -2.31445,2.17431 -2.31445,2.17431 -102.93555,0.006 c -68.10471,0.004 -104.20128,0.3571 -106.67616,1.04442 -2.74566,0.76252 -7.00142,4.24586 -16,13.096 -6.74266,6.63144 -13.30118,12.46145 -14.57449,12.95558 -1.2733,0.49372 -15.27512,0.898 -31.11514,0.898 -28.00512,0 -28.87967,-0.0599 -31.6849,-2.17133 z m 57.03091,-10.18152 c 3.87954,-2.54197 5.15043,-5.866 3.63843,-9.5163 -2.11341,-5.10222 -5.12602,-5.65963 -29.0542,-5.3759 -18.86467,0.22371 -21.79695,0.47501 -23.92267,2.0502 -3.50461,2.59695 -4.45966,4.53539 -3.70871,7.52742 1.1417,4.54891 4.92269,6.1001 16.5848,6.8041 18.50897,1.11735 33.41298,0.5085 36.46235,-1.48952 z m 231.49057,-27.95358 c 1.87348,-0.65647 4.34848,-2.46366 5.5,-4.01598 1.98036,-2.66968 2.09366,-4.04963 2.09366,-25.5 0,-12.47268 -0.34464,-23.9094 -0.76588,-25.41494 -0.42123,-1.50554 -1.91649,-3.49126 -3.3228,-4.41271 -2.36783,-1.55147 -15.62616,-1.67326 -179.27431,-1.64683 -157.56755,0.0254 -177.04195,0.19637 -179.71256,1.5774 -5.54965,2.86983 -5.92445,4.7551 -5.92445,29.8004 0,21.54849 0.11269,22.92617 2.09366,25.59668 1.15152,1.55232 3.62652,3.35951 5.5,4.01598 4.92946,1.72725 348.88322,1.72725 353.81268,0 z M 379.31919,134.79858 c 6.30049,-2.58494 6.76411,-9.48958 0.92891,-13.83426 -2.70678,-2.01537 -3.94518,-2.10215 -30,-2.10215 -29.7086,0 -32.5853,0.451 -34.64852,5.43205 -1.52337,3.67772 -0.42188,7.55887 2.95061,10.39663 l 2.76047,2.32278 27.38038,-0.44129 c 19.63299,-0.31642 28.29936,-0.81831 30.62815,-1.77376 z m -12.74776,278.53538 -37.5,-0.61659 -12.68586,-4.53557 c -11.09278,-3.966 -13.66697,-5.33827 -20.49859,-10.92759 -10.61873,-8.68777 -15.37963,-13.76149 -18.82834,-20.06545 -2.89961,-5.30023 -2.9142,-5.41317 -2.95062,-22.82659 -0.0383,-18.33888 0.53506,-21.25319 4.42458,-22.48767 2.65057,-0.84126 5.92566,1.05981 7.0867,4.11357 0.52367,1.37737 0.95213,9.25459 0.95213,17.50494 0,9.04739 0.442,15.8675 1.11372,17.1849 0.61254,1.20134 3.63015,4.76589 6.70578,7.92121 4.42633,4.54101 6.89165,6.16942 11.82622,7.81154 3.42878,1.14103 7.89676,3.39587 9.92883,5.01076 2.03208,1.61489 5.45098,3.40908 7.59757,3.9871 2.53215,0.68184 19.25508,0.94605 47.61538,0.75229 51.15698,-0.3495 46.84955,0.56152 60.36272,-12.76677 10.44791,-10.30496 11.25771,-12.43848 10.25379,-27.01469 -0.80312,-11.66084 0.44006,-15.01718 5.56234,-15.01718 5.25313,0 6.03365,2.53833 6.03365,19.6221 l 0,15.17708 -4.0253,5.35041 c -2.21391,2.94273 -4.503,7.15041 -5.08687,9.35041 -1.69683,6.39361 -10.62045,14.40783 -19.88783,17.86108 -4.125,1.53708 -9.075,3.41488 -11,4.17291 -1.925,0.75802 -4.85,1.30536 -6.5,1.21632 -1.65,-0.089 -19.875,-0.43939 -40.5,-0.77851 z m 54.40201,-121.81941 c -2.8039,-1.54626 -7.7539,-4.6391 -11,-6.873 -16.0126,-11.01946 -35.01351,-21.5118 -46.4284,-25.63788 -4.94913,-1.78893 -11.22801,-7.29897 -13.64623,-11.97531 -1.8816,-3.63862 -1.25621,-8.42725 1.73207,-13.26238 2.92094,-4.72618 14.84103,-12.94225 21.64783,-14.92104 3.03429,-0.8821 7.72351,-3.1217 10.42049,-4.97689 2.69698,-1.8552 7.34162,-4.08183 10.32141,-4.94808 2.9798,-0.86625 6.77734,-2.71897 8.43899,-4.11715 1.66165,-1.39819 5.91205,-3.34377 9.44535,-4.32353 3.5333,-0.97975 7.66439,-2.75691 9.18019,-3.94924 3.00369,-2.36271 7.50535,-2.917 7.45449,-0.91788 -0.0642,2.52155 -2.71181,4.50939 -14.02101,10.52683 -12.79597,6.80854 -26.52143,17.67861 -27.56311,21.82899 -1.00122,3.9892 1.66335,10.40856 6.35124,15.30111 2.34557,2.44798 4.26468,4.76861 4.26468,5.15696 0,0.38835 -1.2375,1.51153 -2.75,2.49596 -8.35049,5.43502 -6.8213,10.43924 4.78134,15.64672 3.04223,1.36541 7.76723,4.0747 10.5,6.02063 2.73276,1.94594 7.26701,4.69096 10.0761,6.10004 9.16642,4.59802 14.1045,9.85428 12.88057,13.71053 -0.90979,2.8665 -5.95242,2.49709 -12.086,-0.88539 z M 271.57143,280.44236 c 0,-1.81714 6.28974,-8.42776 14,-14.71422 4.69122,-3.82494 5.93039,-5.47384 5.9682,-7.94166 0.0709,-4.62776 -7.19824,-8.42431 -16.12981,-8.42431 -6.21067,0 -7.83839,-0.74507 -7.83839,-3.58794 0,-3.29118 3.45719,-3.95888 12.4942,-2.41305 9.28937,1.589 13.65763,0.79769 16.90573,-3.06245 4.59351,-5.45908 4.59035,-11.15614 -0.0113,-20.33567 -1.35074,-2.69452 -2.32612,-5.28846 -2.16749,-5.76433 0.53003,-1.59009 7.73293,5.24071 12.35232,11.71419 3.019,4.23075 5.2603,8.86481 6.61371,13.67435 1.12595,4.00119 2.66944,8.49005 3.43,9.97524 2.33042,4.55079 1.75064,8.65365 -1.67508,11.85375 -5.70572,5.32995 -37.43666,20.94591 -42.56115,20.94591 -0.75952,0 -1.38094,-0.86392 -1.38094,-1.91981 z m 10.65499,-78.90893 c -2.1158,-2.33793 -2.12061,-5.05535 -0.0104,-5.86512 2.00767,-0.77042 4.35539,2.13229 4.35539,5.38499 0,2.77135 -2.06498,2.99954 -4.34501,0.48013 z"
         id="path3077"
         inkscape:connector-curvature="0" />
      <path
         style="fill:#15150b"
         d="m 261.67555,553.5235 c -1.42972,-0.20209 -7.27699,-5.08026 -14.5,-12.09683 -6.65727,-6.46699 -13.54427,-12.5021 -15.30446,-13.41133 -2.64202,-1.36476 -6.48008,-1.65413 -22,-1.65875 -10.33981,-0.003 -20.3904,-0.4475 -22.33464,-0.98763 -4.01061,-1.11419 -10.32287,-7.11703 -11.90548,-11.32188 -0.64462,-1.7127 -1.05954,-12.78803 -1.05954,-28.28213 0,-27.27218 0.10329,-27.93875 5.45871,-35.22768 1.34361,-1.82869 3.18458,-5.87611 4.09105,-8.99426 1.5327,-5.27232 2.92408,-6.96539 19.86729,-24.1751 16.58327,-16.84411 22.57835,-23.8734 25.16459,-29.50574 0.52839,-1.15072 1.13068,-45.82906 1.41836,-105.21462 0.46322,-95.6224 0.6257,-103.3403 2.2089,-104.92319 1.61178,-1.61146 1.76808,-1.55293 2.75,1.02972 1.51536,3.9857 1.44184,212.95599 -0.076,215.92383 -0.61438,1.20134 -8.48938,9.63923 -17.5,18.75086 -16.38086,16.56454 -16.3829,16.56717 -16.3829,21.14641 0,3.96813 0.46011,4.98379 3.44502,7.60457 2.54881,2.23789 4.82509,3.18534 8.75,3.64196 2.91774,0.33945 68.30858,0.46469 145.31298,0.27831 134.60224,-0.32579 140.13014,-0.41102 143.17163,-2.20768 3.11734,-1.84145 5.08878,-4.59109 5.39901,-7.53017 0.53211,-5.0412 -0.56244,-6.69791 -12.57864,-19.03898 -8.64247,-8.87613 -12.50399,-13.5513 -12.51293,-15.14949 -0.007,-1.27134 -0.11962,-52.93653 -0.25,-114.81153 -0.18902,-89.69759 -0.50046,-113.09696 -1.53656,-115.44525 -1.58885,-3.60112 -20.54691,-23.08991 -24.70051,-25.39201 -2.6685,-1.47901 -10.07193,-1.74321 -67,-2.39098 -35.2,-0.40054 -66.025,-0.63657 -68.5,-0.52451 -12.41698,0.56217 -60.93531,0.15183 -61.6077,-0.52106 -0.42529,-0.42559 -0.0125,-1.5346 0.9174,-2.46446 1.40898,-1.40898 4.56456,-1.78166 18.94048,-2.23688 19.82158,-0.62767 21.23307,-1.13278 24.69361,-8.83677 3.03389,-6.75414 3.42963,-7.36008 5.86135,-8.97469 2.15819,-1.43298 2.19523,-1.37592 2.21682,3.41464 0.0268,5.94629 2.75061,12.26132 6.59178,15.28278 2.32724,1.83061 3.61779,2.13393 6.87563,1.61601 2.20585,-0.35069 15.03563,-0.95439 28.51063,-1.34156 26.9513,-0.77437 29.4718,-1.32937 32.48307,-7.15252 2.02089,-3.90797 1.90692,-6.8809 -0.40941,-10.67964 -3.34145,-5.47991 -6.08068,-5.86838 -40.32366,-5.71855 -16.9125,0.074 -30.75,-0.23798 -30.75,-0.69329 0,-0.45532 1.00013,-1.52836 2.22251,-2.38455 1.90192,-1.33216 6.95581,-1.55671 35.0373,-1.55671 l 32.8148,0 4.39952,4.52678 c 3.00221,3.08904 4.88519,6.1857 5.92869,9.75 3.58711,12.25264 4.90373,12.72322 35.59718,12.72322 18.11924,0 24.87468,0.33863 27.34476,1.3707 3.73959,1.5625 20.06743,16.7222 25.81606,23.9691 l 3.83918,4.8398 0.006,112.6602 c 0.004,79.28325 0.33354,113.84157 1.11259,116.64774 0.7866,2.83338 3.46229,6.41785 9.24442,12.38416 11.17423,11.5302 29.2146,27.73055 34.47443,30.95822 2.39315,1.46855 5.77133,3.90082 7.50708,5.40506 4.47003,3.87384 2.53261,4.72635 -10.8441,4.77164 -6.05,0.0205 -84.35,0.13987 -174,0.26531 -158.60335,0.22192 -163.10457,0.27997 -166.87686,2.15221 -6.84846,3.399 -7.57922,6.4916 -7.57922,32.07586 0,19.67047 0.20632,22.45459 1.94847,26.29316 1.52076,3.35075 2.92496,4.7251 6.39702,6.26096 4.37693,1.93612 7.29029,1.9636 180.95636,1.70685 l 176.50739,-0.26097 2.76142,-2.06179 c 6.76645,-5.0521 6.85427,-5.41507 7.19997,-29.75877 0.17323,-12.19869 0.73894,-22.61015 1.25714,-23.13658 0.59766,-0.60716 1.57946,-0.32047 2.68503,0.78402 1.55448,1.55297 1.77632,4.65426 2.05241,28.69305 l 0.30955,26.95189 -2.54155,2.54155 -2.54154,2.54154 -103.29555,-0.0873 c -73.55453,-0.0622 -104.13737,0.23279 -106.21938,1.02437 -1.60811,0.6114 -8.6691,6.71331 -15.69109,13.55981 -8.7107,8.49303 -13.4921,12.45379 -15.04861,12.46582 -1.25476,0.01 -13.75638,0.1222 -27.78138,0.25 -14.025,0.12782 -26.57815,0.08 -27.89588,-0.10629 z m 43.20433,-4.25994 c 11.10887,-1.69705 16.69155,-5.70994 16.69155,-11.99809 0,-3.58069 -2.82908,-7.59265 -6.70595,-9.5098 -3.41624,-1.68936 -5.97318,-1.85055 -25.67712,-1.61861 -24.10417,0.28372 -27.40123,0.97353 -30.16098,6.3103 -1.7351,3.35532 -1.84069,5.9763 -0.37074,9.20249 2.10682,4.62397 5.98852,5.84698 21.6714,6.82799 8.03333,0.50252 14.82445,1.13207 15.09139,1.399 0.67319,0.6732 1.30896,0.63198 9.46045,-0.61327 z m 29.47568,-139.87064 c -3.69374,-0.37691 -9.76874,-1.87585 -13.5,-3.33097 -3.73127,-1.45512 -8.72884,-3.13387 -11.10571,-3.73054 -2.8322,-0.71099 -6.32398,-2.87429 -10.13174,-6.27705 -3.19559,-2.8557 -7.55088,-6.5907 -9.67842,-8.30001 -2.12754,-1.70931 -5.66826,-5.7288 -7.86826,-8.93221 l -4,-5.82437 -0.3132,-17.82493 c -0.27653,-15.7378 -0.1223,-17.89818 1.31721,-18.45057 0.89674,-0.34411 2.08279,-0.17329 2.63568,0.3796 0.55289,0.55289 1.17042,7.98695 1.3723,16.52014 0.24434,10.32827 0.83801,16.63902 1.77587,18.87753 0.77485,1.84945 4.41507,6.1719 8.08937,9.60544 5.05005,4.71914 7.6301,6.39464 10.57106,6.86492 3.8586,0.61702 4.77353,1.09849 13.09727,6.89228 l 4.31,3 47.57222,0 c 44.6417,0 47.80663,-0.11643 51.37742,-1.89013 5.50347,-2.73371 20.79384,-16.95115 23.54276,-21.89076 2.18096,-3.91902 2.31154,-5.01404 1.83586,-15.3954 -0.38001,-8.29343 -0.17524,-11.63697 0.79383,-12.96225 1.10638,-1.51308 1.55166,-1.58203 2.91414,-0.45127 1.31952,1.09511 1.60821,3.56238 1.60821,13.74437 0,13.17496 -0.96496,17.27789 -4.88522,20.77145 -1.18868,1.05931 -2.87885,4.43431 -3.75592,7.5 -2.0976,7.33193 -8.79323,14.07234 -16.47658,16.58677 -2.96025,0.96877 -7.05185,2.5997 -9.09244,3.62431 -3.42966,1.72207 -6.41602,1.85218 -39.5,1.72094 -19.68441,-0.0781 -38.81198,-0.45036 -42.50571,-0.82728 z m 85.96587,-123.25027 c -4.13553,-2.39705 -5.02862,-4.31223 -1.5,-3.21666 2.30797,0.71657 7.75,4.23057 7.75,5.00428 0,1.02154 -2.77066,0.22908 -6.25,-1.78762 z m -134.75,-14.16179 c 0,-0.75972 1.6875,-2.64741 3.75,-4.19486 6.34162,-4.75799 7.65158,-8.13869 5.55589,-14.33836 l -1.43373,-4.24138 4.42224,-4.72774 c 2.43223,-2.60025 4.9709,-6.39017 5.64147,-8.42204 2.21473,-6.71069 4.1632,-4.8169 8.54553,8.30569 3.45923,10.35842 3.32762,13.29522 -0.7314,16.32059 -2.96761,2.21189 -23.72581,12.67941 -25.14463,12.67941 -0.33295,0 -0.60537,-0.62159 -0.60537,-1.38131 z m 113.5,0.38131 c -0.78218,-1.2656 0.54163,-1.2656 2.5,0 1.29269,0.8354 1.26629,0.97149 -0.19098,0.98469 -0.93004,0.008 -1.9691,-0.43469 -2.30902,-0.98469 z m -28.5,-13.88317 c -9.71143,-3.52428 -11.1022,-4.33026 -14.86286,-8.61341 -6.46921,-7.36804 -2.76755,-17.66708 7.37004,-20.50543 4.02943,-1.12817 4.75167,-1.07371 6.4779,0.48852 1.06856,0.96702 4.07022,2.15567 6.67036,2.64143 5.68808,1.06265 8.27074,3.30934 11.34195,9.86649 l 2.31631,4.94541 -2.63682,3.80493 c -1.45025,2.09271 -2.92708,5.25624 -3.28185,7.03008 -0.81444,4.0722 -2.96484,4.12711 -13.39503,0.34199 z m 3.44113,-33.64863 c 2.16706,-1.63909 4.55887,-1.94085 4.55887,-0.57519 0,1.05539 -2.4789,2.12004 -4.83179,2.07519 -1.43904,-0.0274 -1.40155,-0.2335 0.27292,-1.5 z"
         id="path3075"
         inkscape:connector-curvature="0" />
    </g>
  </g>
</svg>
